<?xml version="1.0" encoding="UTF-8" standalone="no"?>
<svg
   width="16"
   height="16"
   fill="currentColor"
   class="bi bi-file-music-fill"
   viewBox="0 0 16 16"
   version="1.1"
   id="svg4"
   sodipodi:docname="music.svg"
   inkscape:version="1.1.1 (3bf5ae0d25, 2021-09-20)"
   xmlns:inkscape="http://www.inkscape.org/namespaces/inkscape"
   xmlns:sodipodi="http://sodipodi.sourceforge.net/DTD/sodipodi-0.dtd"
   xmlns="http://www.w3.org/2000/svg"
   xmlns:svg="http://www.w3.org/2000/svg">
  <defs
     id="defs8">
    <filter
       style="color-interpolation-filters:sRGB;"
       inkscape:label="Invert"
       id="filter74"
       x="0"
       y="0"
       width="1"
       height="1">
      <feColorMatrix
         type="hueRotate"
         values="180"
         result="color1"
         id="feColorMatrix70" />
      <feColorMatrix
         values="0 -1 0 0 1 -1 0 0 0 1 0 0 -1 0 1 -0.21 -0.72 -0.07 2 0 "
         result="color2"
         id="feColorMatrix72" />
    </filter>
  </defs>
  <sodipodi:namedview
     id="namedview6"
     pagecolor="#ffffff"
     bordercolor="#666666"
     borderopacity="1.0"
     inkscape:pageshadow="2"
     inkscape:pageopacity="0.0"
     inkscape:pagecheckerboard="0"
     showgrid="false"
     inkscape:zoom="54.5625"
     inkscape:cx="7.9908362"
     inkscape:cy="8"
     inkscape:window-width="2457"
     inkscape:window-height="1417"
     inkscape:window-x="95"
     inkscape:window-y="-8"
     inkscape:window-maximized="1"
     inkscape:current-layer="svg4" />
  <path
     d="M12 0H4a2 2 0 0 0-2 2v12a2 2 0 0 0 2 2h8a2 2 0 0 0 2-2V2a2 2 0 0 0-2-2zm-.5 4.11v1.8l-2.5.5v5.09c0 .495-.301.883-.662 1.123C7.974 12.866 7.499 13 7 13c-.5 0-.974-.134-1.338-.377-.36-.24-.662-.628-.662-1.123s.301-.883.662-1.123C6.026 10.134 6.501 10 7 10c.356 0 .7.068 1 .196V4.41a1 1 0 0 1 .804-.98l1.5-.3a1 1 0 0 1 1.196.98z"
     id="path2"
     style="filter:url(#filter74)" />
</svg>
