<?xml version="1.0" encoding="UTF-8" standalone="no"?>
<svg
   width="16"
   height="16"
   fill="currentColor"
   class="bi bi-vinyl-fill"
   viewBox="0 0 16 16"
   version="1.1"
   id="svg178"
   sodipodi:docname="vinyl-fill.svg"
   inkscape:version="1.1.1 (3bf5ae0d25, 2021-09-20)"
   xmlns:inkscape="http://www.inkscape.org/namespaces/inkscape"
   xmlns:sodipodi="http://sodipodi.sourceforge.net/DTD/sodipodi-0.dtd"
   xmlns="http://www.w3.org/2000/svg"
   xmlns:svg="http://www.w3.org/2000/svg">
  <defs
     id="defs182">
    <filter
       style="color-interpolation-filters:sRGB;"
       inkscape:label="Invert"
       id="filter218"
       x="0"
       y="0"
       width="1"
       height="1">
      <feColorMatrix
         type="hueRotate"
         values="180"
         result="color1"
         id="feColorMatrix214" />
      <feColorMatrix
         values="0 -1 0 0 1 -1 0 0 0 1 0 0 -1 0 1 -0.21 -0.72 -0.07 2 0 "
         result="color2"
         id="feColorMatrix216" />
    </filter>
    <filter
       style="color-interpolation-filters:sRGB;"
       inkscape:label="Invert"
       id="filter224"
       x="0"
       y="0"
       width="1"
       height="1">
      <feColorMatrix
         type="hueRotate"
         values="180"
         result="color1"
         id="feColorMatrix220" />
      <feColorMatrix
         values="0 -1 0 0 1 -1 0 0 0 1 0 0 -1 0 1 -0.21 -0.72 -0.07 2 0 "
         result="color2"
         id="feColorMatrix222" />
    </filter>
  </defs>
  <sodipodi:namedview
     id="namedview180"
     pagecolor="#ffffff"
     bordercolor="#666666"
     borderopacity="1.0"
     inkscape:pageshadow="2"
     inkscape:pageopacity="0.0"
     inkscape:pagecheckerboard="0"
     showgrid="false"
     inkscape:zoom="54.5625"
     inkscape:cx="7.9908362"
     inkscape:cy="8"
     inkscape:window-width="2457"
     inkscape:window-height="1417"
     inkscape:window-x="95"
     inkscape:window-y="-8"
     inkscape:window-maximized="1"
     inkscape:current-layer="svg178" />
  <path
     d="M8 6a2 2 0 1 0 0 4 2 2 0 0 0 0-4zm0 3a1 1 0 1 1 0-2 1 1 0 0 1 0 2z"
     id="path174"
     style="filter:url(#filter224)" />
  <path
     d="M16 8A8 8 0 1 1 0 8a8 8 0 0 1 16 0zM4 8a4 4 0 1 0 8 0 4 4 0 0 0-8 0z"
     id="path176"
     style="filter:url(#filter218)" />
</svg>
